<svg width="512" height="512" viewBox="0 0 512 512" xmlns="http://www.w3.org/2000/svg">
  <!-- Background circle -->
  <circle cx="256" cy="256" r="240" fill="#1a365d"/>
  
  <!-- Outer circle border -->
  <circle cx="256" cy="256" r="240" fill="none" stroke="#3182ce" stroke-width="8"/>
  
  <!-- City Hall Building -->
  <g id="building">
    <!-- Main building base -->
    <rect x="180" y="240" width="152" height="160" fill="#fff" rx="4"/>
    
    <!-- Building columns -->
    <rect x="190" y="250" width="20" height="140" fill="#e2e8f0"/>
    <rect x="220" y="250" width="20" height="140" fill="#e2e8f0"/>
    <rect x="250" y="250" width="20" height="140" fill="#e2e8f0"/>
    <rect x="280" y="250" width="20" height="140" fill="#e2e8f0"/>
    <rect x="310" y="250" width="20" height="140" fill="#e2e8f0"/>
    
    <!-- Steps -->
    <rect x="170" y="390" width="172" height="10" fill="#cbd5e0"/>
    <rect x="160" y="400" width="192" height="10" fill="#a0aec0"/>
    
    <!-- Dome/Capitol top -->
    <ellipse cx="256" cy="200" rx="60" ry="40" fill="#fff"/>
    <ellipse cx="256" cy="200" rx="50" ry="32" fill="#3182ce"/>
    
    <!-- Flag pole -->
    <rect x="253" y="140" width="6" height="60" fill="#718096"/>
    
    <!-- Flag -->
    <path d="M259 145 L259 165 L285 155 Z" fill="#e53e3e"/>
    
    <!-- Door -->
    <rect x="236" y="330" width="40" height="60" fill="#2d3748" rx="2"/>
    <circle cx="265" cy="360" r="3" fill="#cbd5e0"/>
    
    <!-- Windows -->
    <rect x="195" y="270" width="12" height="16" fill="#3182ce" rx="1"/>
    <rect x="225" y="270" width="12" height="16" fill="#3182ce" rx="1"/>
    <rect x="275" y="270" width="12" height="16" fill="#3182ce" rx="1"/>
    <rect x="305" y="270" width="12" height="16" fill="#3182ce" rx="1"/>
    
    <rect x="195" y="300" width="12" height="16" fill="#3182ce" rx="1"/>
    <rect x="225" y="300" width="12" height="16" fill="#3182ce" rx="1"/>
    <rect x="275" y="300" width="12" height="16" fill="#3182ce" rx="1"/>
    <rect x="305" y="300" width="12" height="16" fill="#3182ce" rx="1"/>
  </g>
  
  <!-- Document overlay -->
  <g id="document" transform="translate(320, 280)">
    <!-- Document background -->
    <rect x="0" y="0" width="120" height="150" fill="#fff" rx="8" stroke="#cbd5e0" stroke-width="3"/>
    
    <!-- Document lines -->
    <line x1="15" y1="25" x2="105" y2="25" stroke="#e2e8f0" stroke-width="4"/>
    <line x1="15" y1="45" x2="105" y2="45" stroke="#e2e8f0" stroke-width="4"/>
    <line x1="15" y1="65" x2="105" y2="65" stroke="#e2e8f0" stroke-width="4"/>
    <line x1="15" y1="85" x2="80" y2="85" stroke="#e2e8f0" stroke-width="4"/>
    
    <!-- AI sparkle icon -->
    <circle cx="60" cy="110" r="20" fill="#3182ce"/>
    <path d="M60 95 L65 105 L75 110 L65 115 L60 125 L55 115 L45 110 L55 105 Z" fill="#fff"/>
  </g>
  
  <!-- Bottom text banner -->
  <rect x="80" y="450" width="352" height="50" fill="#2d3748" rx="8"/>
  <text x="256" y="482" font-family="Arial, sans-serif" font-size="28" font-weight="bold" fill="#fff" text-anchor="middle">LINCOLN CA</text>
</svg>
